# xmcd
#
# Track frame offsets: 
#        150
#        17112
#        34509
#        52035
#        68840
#        85812
#        100042
#        116515
#        132432
#        145220
#        162523
#        174795
#
# Disc length: 2540 seconds
#
# Revision: 0
# Processed by: cddbd v1.5.2PL0 Copyright (c) Steve Scherf et al.
# Submitted via: ExactAudioCopy v0.99pb4
#
DISCID=9a09ea0c
DTITLE=พนม นพพร - ที่เด็ด พนม นพพร
DYEAR=2009
DGENRE=Country
TTITLE0=ใต้เงาโศก
TTITLE1=หนุนขอนต่างแขน
TTITLE2=เสียงจากพนม
TTITLE3=แม่นางนกขมิ้น
TTITLE4=เสน่ห์บางกอก
TTITLE5=รักเก้อ
TTITLE6=ลาสาวแม่กลอง
TTITLE7=นิราศรักนครปฐม
TTITLE8=แฟนใคร
TTITLE9=วิวาห์สะอื้น
TTITLE10=ตุ้งหนิง
TTITLE11=ฮักสาวขอนแก่น
EXTD=
EXTT0=
EXTT1=
EXTT2=
EXTT3=
EXTT4=
EXTT5=
EXTT6=
EXTT7=
EXTT8=
EXTT9=
EXTT10=
EXTT11=
PLAYORDER=
